# xmcd
#
# Track frame offsets:
#	150
#	14120
#	27307
#	42370
#	55307
#	69900
#	82635
#	100157
#	119347
#	134780
#	152957
#	168467
#	184305
#	203905
#	218375
#	233685
#
# Disc length: 3359 seconds
#
# Revision: 2
# Processed by: cddbd v1.5.2PL0 Copyright (c) Steve Scherf et al.
# Submitted via: audiograbber 1.83.01
#
DISCID=dc0d1d10
DTITLE=Monster Hits - MH1048
DYEAR=1900
DGENRE=Karaoke
TTITLE0=Tucker, Tanya - Without You What Do I Do With Me
TTITLE1=Tillis, Pam - Mi Vida Loca (My Crazy Life)
TTITLE2=Morgan, Lorrie - Out Of Your Shoes
TTITLE3=Mattea, Kathy - Time Passes By
TTITLE4=Judd, Wynonna and Wynette, Tammy - Girl Thang
TTITLE5=Mattea, Kathy - Whole Lotta Holes
TTITLE6=McEntire, Reba - Heart Is A Lonely Hunter, The
TTITLE7=Mattea, Kathy - Standing Knee Deep In A River Dying Of Thirst\\n
TTITLE8=Morgan, Lorrie - I Didn't Even Know My Own Strength
TTITLE9=McEntire, Reba - She Thinks His Name Was John
TTITLE10=Krauss, Alison and Union Station - When You Say Nothing At All
TTITLE11=Tillis, Pam - In Between Dances
TTITLE12=McEntire, Reba - You Lie
TTITLE13=McEntire, Reba - Cathy's Clown
TTITLE14=Tucker, Tanya - Between The Two Of Them
TTITLE15=Loveless, Patty - You Don't Even Know Who I Am
EXTD=
EXTT0=
EXTT1=
EXTT2=
EXTT3=
EXTT4=
EXTT5=
EXTT6=
EXTT7=
EXTT8=
EXTT9=
EXTT10=
EXTT11=
EXTT12=
EXTT13=
EXTT14=
EXTT15=
PLAYORDER=
